# xmcd
#
# Track frame offsets:
# 182
# 13945
# 23855
# 39960
# 56857
# 74860
# 135667
# 149127
# 164797
# 180007
# 208457
# 234157
# 247295
# 267330
# 289907
#
# Disc length: 4207 seconds
#
#
# Revision: 5
# Processed by: cddbd v1.5.1PL0 Copyright (c) Steve Scherf et al.
# Submitted via: FreeRIP 2.941 
#
DISCID=f6106d0f
DTITLE=Jazz Club - Alto Sax
DYEAR=1989
DGENRE=Jazz
TTITLE0=Now's The Time - Charlie Parker
TTITLE1=Kicks Swings - Bud Shank
TTITLE2=A Sleepin' Bee - Art Pepper
TTITLE3=Yesterdays - Phil Woods
TTITLE4=Porky - Cannonball Adderly
TTITLE5=Funky Blues - Charlie Parker, Johnny Hodges, Benny Carter
TTITLE6=C-Jam Blues - Charlie Mariano
TTITLE7=Standstill - Paul Desmond
TTITLE8=Blues Greasy - Sonny Stitt
TTITLE9=Confirmation - Jackie McLean
TTITLE10=Blues For Bird - Lee Konitz
TTITLE11=Futurity - Gigi Gryce
TTITLE12=Bemoanable Lady - Eric Dolphy
TTITLE13=
TTITLE14=Rockin' Chair - Herb Geller
EXTD=` YEAR: 1989
EXTT0=
EXTT1=
EXTT2=
EXTT3=
EXTT4=
EXTT5=
EXTT6=
EXTT7=
EXTT8=
EXTT9=
EXTT10=
EXTT11=
EXTT12=
EXTT13=
EXTT14=
PLAYORDER=
